<?xml version="1.0" encoding="iso-8859-1"?>
<!-- Uploaded to: SVG Repo, www.svgrepo.com, Generator: SVG Repo Mixer Tools -->
<svg fill="#000000" height="800px" width="800px" version="1.1" id="Layer_1" xmlns="http://www.w3.org/2000/svg" xmlns:xlink="http://www.w3.org/1999/xlink" 
	 viewBox="0 0 512.001 512.001" xml:space="preserve">
<g>
	<g>
		<path d="M427.681,503.612l-83.75-33.601c-19.811-7.948-32.796-27.148-32.796-48.494v-34.374
			c45.096-32.413,76.389-101.106,76.389-166.891c0-24.401-4.312-47.549-12.031-68.344h-1.013
			c27.813-10.587,47.58-37.489,47.596-69.023c0.015-27.427-1.706-54.682-3.098-72.232c-0.311-3.911-2.581-7.398-6.032-9.263
			s-7.609-1.85-11.052,0.031c-48.996,26.765-116.055,17.264-177.533,22.303c-36.56,2.997-49.605,23.99-53.846,42.818
			c-0.252-0.004-0.5-0.019-0.752-0.019c-30.01-0.79-68.346,4.143-68.346,51.086c0,23.471,23.361,113.643,23.361,113.643l0.001-0.004
			c3.236,62.318,33.504,125.284,76.092,155.895v34.373c0,21.347-12.984,40.546-32.796,48.494l-83.75,33.601
			c-1.936,0.777-3.048,2.818-2.652,4.865c0.397,2.048,2.19,3.525,4.275,3.525h340.11c2.084,0,3.876-1.479,4.273-3.525
			C430.725,506.429,429.615,504.387,427.681,503.612z M266.789,252.59v-4.211h-21.578v4.211c0,14.628-11.859,26.486-26.486,26.486
			h-35.62c-14.628,0-26.486-11.859-26.486-26.486v-23.051c0-7.531,6.105-13.637,13.637-13.637h61.319
			c6.314,0,11.61,4.297,13.162,10.122h22.526c1.552-5.825,6.848-10.122,13.162-10.122h61.319c7.531,0,13.637,6.105,13.637,13.637
			v23.051c0,14.628-11.859,26.486-26.486,26.486h-35.62C278.647,279.076,266.789,267.217,266.789,252.59z"/>
	</g>
</g>
</svg>